<svg width="65" height="64" viewBox="0 0 65 64" fill="none" xmlns="http://www.w3.org/2000/svg">
<g clip-path="url(#clip0_1_503)">
<path d="M1.48928 40.4784C0.734741 37.7306 0.350586 34.8764 0.350586 32.0018C0.350586 18.879 8.59227 6.88003 20.8605 2.14832L22.469 6.31128C11.9088 10.3852 4.81612 20.7086 4.81612 32.0018C4.81612 34.479 5.14536 36.9322 5.79359 39.2963L1.48928 40.4784Z" fill="#58D09E"/>
<path d="M20.6461 2.2505C23.3 1.21286 26.0984 0.532471 28.9573 0.231986C42.0082 -1.13972 54.8029 5.80258 60.7911 17.509L56.819 19.5438C51.6636 9.46734 40.6554 3.4926 29.424 4.67306C26.9604 4.93199 24.5551 5.51586 22.2716 6.40766L20.6461 2.2505Z" fill="#58D09E"/>
<path d="M46.9979 55.2685C55.7123 49.7137 60.5661 39.8557 59.6643 29.5475C59.3447 25.895 58.331 22.4066 56.6563 19.1861L60.6133 17.1219C62.5608 20.866 63.7405 24.9148 64.1118 29.1584C65.1595 41.1339 59.523 52.5821 49.398 59.0351L46.9979 55.2685Z" fill="#F9FAFB"/>
<path d="M22.8533 25.3992C25.4426 25.3992 27.5519 26.78 28.6358 29.1887L28.7215 29.3772L33.0703 27.9004L32.9778 27.6778C31.2938 23.5764 27.4147 21.0272 22.8533 21.0272C19.6463 21.0272 17.0398 22.0552 14.8859 24.1658C12.7457 26.2627 11.6619 28.901 11.6619 32.0086C11.6619 35.0888 12.7457 37.7134 14.8859 39.8103C17.0398 41.921 19.6463 42.9488 22.8533 42.9488C27.4147 42.9488 31.2938 40.3996 32.9778 36.3018L33.0703 36.0791L28.7146 34.5988L28.6323 34.7942C27.6616 37.1618 25.501 38.5768 22.8533 38.5768C21.0491 38.5768 19.5263 37.9464 18.319 36.706C17.098 35.4486 16.4807 33.8691 16.4807 32.012C16.4807 30.1412 17.0843 28.5926 18.319 27.2768C19.5228 26.0298 21.0491 25.3992 22.8533 25.3992Z" fill="#F9FAFB"/>
<path d="M50.0921 21.4316L43.8946 37.1138L37.6559 21.4316H32.5525L41.3017 42.8358L35.0767 57.932L39.5389 58.8195L54.9143 21.4316H50.0921Z" fill="#F9FAFB"/>
<path d="M35.8751 55.9858L34.7879 58.6173C34.5718 59.1381 34.0779 59.4909 33.5223 59.5149C33.1554 59.5286 32.785 59.5389 32.4111 59.5389C19.6147 59.5321 8.29316 50.5106 5.48763 38.08L1.13184 39.0633C2.70609 46.0358 6.65717 52.3642 12.2579 56.887C17.9239 61.461 25.0611 63.9862 32.3631 64C32.3734 64 32.4282 64 32.4282 64C32.857 64 33.2822 63.9897 33.7075 63.9726C35.9986 63.8766 38.0462 62.441 38.9207 60.3133L40.3406 56.8733L35.8751 55.9858Z" fill="#F9FAFB"/>
</g>
<defs>
<clipPath id="clip0_1_503">
<rect width="64" height="64" fill="white" transform="translate(0.350586)"/>
</clipPath>
</defs>
</svg>
