<svg width="57" height="64" viewBox="0 0 57 64" fill="none" xmlns="http://www.w3.org/2000/svg">
<g clip-path="url(#clip0_1_458)">
<path d="M28.9133 64C28.0553 64 27.2545 63.7668 26.5109 63.3586L18.9036 58.7517C17.7597 58.1102 18.3316 57.877 18.6748 57.7603C20.2192 57.2355 20.5052 57.1189 22.1067 56.1859C22.2783 56.0692 22.5071 56.1275 22.6786 56.2442L28.5128 59.8014C28.7417 59.918 29.0276 59.918 29.1992 59.8014L52.0212 46.3307C52.25 46.214 52.3644 45.9808 52.3644 45.6892V18.806C52.3644 18.5145 52.25 18.2812 52.0212 18.1646L29.1992 4.75223C28.9704 4.63561 28.6844 4.63561 28.5128 4.75223L5.6909 18.1646C5.46211 18.2812 5.34771 18.5728 5.34771 18.806V45.6892C5.34771 45.9224 5.46211 46.214 5.6909 46.3307L11.9255 50.0045C15.3002 51.7539 17.4164 49.7129 17.4164 47.6719V21.1386C17.4164 20.7888 17.7025 20.4389 18.1028 20.4389H21.02C21.3631 20.4389 21.7063 20.7305 21.7063 21.1386V47.6719C21.7063 52.2788 19.2468 54.9613 14.9569 54.9613C13.6414 54.9613 12.6119 54.9613 9.69473 53.5034L3.68898 50.0045C2.20183 49.1297 1.28667 47.4969 1.28667 45.7475V18.8644C1.28667 17.115 2.20183 15.4822 3.68898 14.6074L26.5109 1.13672C27.9409 0.320313 29.8856 0.320313 31.3156 1.13672L54.1375 14.6074C55.6246 15.4822 56.5398 17.115 56.5398 18.8644V45.7475C56.5398 47.4969 55.6246 49.1297 54.1375 50.0045L31.3156 63.4752C30.6292 63.7668 29.7712 64 28.9133 64Z" fill="#5FA04E"/>
<path d="M36.0058 45.5142C25.9961 45.5142 23.937 40.849 23.937 36.8836C23.937 36.5337 24.223 36.1839 24.6233 36.1839H27.5977C27.9408 36.1839 28.2269 36.4171 28.2269 36.767C28.6844 39.8576 30 41.3738 36.063 41.3738C40.8675 41.3738 42.9267 40.2658 42.9267 37.6417C42.9267 36.1255 42.3547 35.0175 34.8618 34.2594C28.6272 33.6179 24.7378 32.2184 24.7378 27.145C24.7378 22.4215 28.6272 19.6224 35.1478 19.6224C42.4691 19.6224 46.0725 22.1883 46.5302 27.7865C46.5302 27.9615 46.473 28.1364 46.3586 28.3114C46.2442 28.4279 46.0725 28.5446 45.901 28.5446H42.8695C42.5835 28.5446 42.2975 28.3114 42.2403 28.0197C41.5539 24.8124 39.7808 23.7627 35.0906 23.7627C29.8283 23.7627 29.1992 25.6289 29.1992 27.0284C29.1992 28.7195 29.9428 29.2444 37.0353 30.1774C44.0706 31.1104 47.3881 32.4517 47.3881 37.4668C47.3881 42.5984 43.2127 45.5142 36.0058 45.5142Z" fill="#5FA04E"/>
</g>
<defs>
<clipPath id="clip0_1_458">
<rect width="56.32" height="64" fill="white" transform="translate(0.653778)"/>
</clipPath>
</defs>
</svg>
