<svg width="65" height="64" viewBox="0 0 65 64" fill="none" xmlns="http://www.w3.org/2000/svg">
<path fill-rule="evenodd" clip-rule="evenodd" d="M11.438 55.604L9.70197 9.37595C9.6473 7.84929 10.8206 6.55729 12.3446 6.46395L43.1553 4.53729L45.5086 5.33329L48.5686 4.19862L51.6566 4.00529C53.2073 3.90662 54.5446 5.08395 54.6446 6.63462C54.6486 6.69462 54.65 6.75595 54.65 6.81729V57.1866C54.6486 58.7426 53.386 60.0026 51.83 60.0013C51.7886 60.0013 51.7473 60 51.7073 59.9986L14.126 58.3106C12.662 58.2453 11.494 57.0693 11.438 55.604Z" fill="#FF4081"/>
<path fill-rule="evenodd" clip-rule="evenodd" d="M48.5659 4.19861L43.1566 4.53461L42.8939 10.8826C42.8846 11.1146 43.0646 11.3093 43.2966 11.3199C43.3939 11.3239 43.4886 11.2946 43.5659 11.2359L46.0299 9.36528L48.1126 11.0066C48.2939 11.1506 48.5593 11.1199 48.7019 10.9386C48.7633 10.8599 48.7953 10.7626 48.7926 10.6626L48.5686 4.19994L48.5659 4.19861ZM44.3553 25.4506C43.3673 26.2199 35.9859 26.7439 35.9859 25.6493C36.1433 21.4693 34.2726 21.2866 33.2313 21.2866C32.2459 21.2866 30.5819 21.5839 30.5819 23.8239C30.5819 26.1053 33.0126 27.3933 35.8659 28.9053C39.9179 31.0533 44.8259 33.6546 44.8259 40.1946C44.8259 46.4666 39.7299 49.9279 33.2339 49.9279C26.5286 49.9279 20.6673 47.2146 21.3286 37.8093C21.5886 36.7066 30.1153 36.9693 30.1153 37.8093C30.0086 41.6906 30.8939 42.8319 33.1286 42.8319C34.8446 42.8319 35.6233 41.8853 35.6233 40.2946C35.6233 37.8839 33.0926 36.4613 30.1779 34.8266C26.2326 32.6119 21.5899 30.0053 21.5899 24.0213C21.5899 18.0519 25.6953 14.0706 33.0246 14.0706C40.3539 14.0706 44.3553 17.9919 44.3553 25.4506Z" fill="white"/>
</svg>
