<svg width="44" height="64" viewBox="0 0 44 64" fill="none" xmlns="http://www.w3.org/2000/svg">
<g clip-path="url(#clip0_1_495)">
<path d="M22.0259 32C22.0259 29.1711 23.1497 26.458 25.1501 24.4576C27.1505 22.4572 29.8636 21.3334 32.6926 21.3334C35.5216 21.3334 38.2347 22.4572 40.2351 24.4576C42.2355 26.458 43.3593 29.1711 43.3593 32C43.3593 34.829 42.2355 37.5421 40.2351 39.5425C38.2347 41.5429 35.5216 42.6667 32.6926 42.6667C29.8636 42.6667 27.1505 41.5429 25.1501 39.5425C23.1497 37.5421 22.0259 34.829 22.0259 32Z" fill="#1ABCFE"/>
<path d="M0.692604 53.3333C0.692604 50.5043 1.81641 47.7912 3.8168 45.7908C5.81719 43.7904 8.53029 42.6666 11.3593 42.6666H22.0259V53.3333C22.0259 56.1623 20.9021 58.8754 18.9017 60.8758C16.9014 62.8762 14.1882 64 11.3593 64C8.53029 64 5.81719 62.8762 3.8168 60.8758C1.81641 58.8754 0.692604 56.1623 0.692604 53.3333Z" fill="#0ACF83"/>
<path d="M22.0259 0V21.3333H32.6926C35.5216 21.3333 38.2347 20.2095 40.2351 18.2091C42.2355 16.2087 43.3593 13.4956 43.3593 10.6667C43.3593 7.83769 42.2355 5.12458 40.2351 3.12419C38.2347 1.12381 35.5216 0 32.6926 0L22.0259 0Z" fill="#FF7262"/>
<path d="M0.692604 10.6667C0.692604 13.4956 1.81641 16.2087 3.8168 18.2091C5.81719 20.2095 8.53029 21.3333 11.3593 21.3333H22.0259V0H11.3593C8.53029 0 5.81719 1.12381 3.8168 3.12419C1.81641 5.12458 0.692604 7.83769 0.692604 10.6667Z" fill="#F24E1E"/>
<path d="M0.692604 32C0.692604 34.829 1.81641 37.5421 3.8168 39.5425C5.81719 41.5429 8.53029 42.6667 11.3593 42.6667H22.0259V21.3334H11.3593C8.53029 21.3334 5.81719 22.4572 3.8168 24.4576C1.81641 26.458 0.692604 29.1711 0.692604 32Z" fill="#A259FF"/>
</g>
<defs>
<clipPath id="clip0_1_495">
<rect width="42.6667" height="64" fill="white" transform="translate(0.692604)"/>
</clipPath>
</defs>
</svg>
