<svg width="65" height="64" viewBox="0 0 65 64" fill="none" xmlns="http://www.w3.org/2000/svg">
<path d="M53.8053 34.608C51.7547 34.6187 49.9787 35.1107 48.4907 35.8454C47.9467 34.7587 47.3947 33.8027 47.3027 33.092C47.1947 32.2627 47.0693 31.7667 47.2 30.7787C47.3307 29.7907 47.9027 28.3907 47.8947 28.2854C47.8867 28.18 47.7667 27.6774 46.584 27.668C45.4013 27.66 44.3893 27.896 44.2707 28.208C44.152 28.52 43.924 29.2227 43.7827 29.956C43.576 31.028 41.4213 34.8534 40.1987 36.8534C39.7987 36.072 39.4587 35.384 39.388 34.84C39.28 34.0107 39.1547 33.5147 39.2853 32.5267C39.416 31.5387 39.988 30.1387 39.98 30.0334C39.972 29.928 39.852 29.4254 38.6693 29.416C37.4867 29.408 36.4747 29.644 36.356 29.956C36.2374 30.268 36.1093 30.9974 35.868 31.704C35.6253 32.4094 32.7627 38.7894 32.012 40.444C31.6293 41.2867 31.2973 41.964 31.0627 42.4254L31.0613 42.4227C31.0613 42.4227 31.0467 42.4534 31.0227 42.5054C30.8214 42.8987 30.7027 43.116 30.7027 43.116C30.7027 43.116 30.704 43.1187 30.7067 43.124C30.5467 43.4134 30.376 43.6814 30.292 43.6814C30.2333 43.6814 30.1147 42.912 30.3173 41.856C30.744 39.6427 31.7667 36.192 31.7573 36.072C31.752 36.0107 31.948 35.4094 31.0893 35.0947C30.2547 34.7894 29.9573 35.2987 29.8813 35.3C29.808 35.3014 29.7533 35.48 29.7533 35.48C29.7533 35.48 30.6827 31.5987 27.98 31.5987C26.2893 31.5987 23.948 33.448 22.7947 35.124C22.0667 35.5214 20.508 36.372 18.856 37.28C18.2213 37.6294 17.5733 37.9854 16.9587 38.324C16.9173 38.2774 16.8747 38.232 16.832 38.1854C13.5533 34.688 7.49468 32.2147 7.75068 27.512C7.84402 25.8027 8.43868 21.3014 19.3947 15.8427C28.3693 11.3707 35.5547 12.6014 36.796 15.328C38.5693 19.2254 32.956 26.4667 23.636 27.512C20.0853 27.9107 18.2147 26.5334 17.7493 26.0214C17.26 25.4814 17.1867 25.4574 17.004 25.5587C16.7067 25.724 16.8947 26.2 17.004 26.484C17.2827 27.208 18.424 28.492 20.3707 29.132C22.084 29.6947 26.2533 30.0027 31.2947 28.052C36.9427 25.868 41.352 19.7907 40.056 14.712C38.7387 9.5467 30.1733 7.84803 22.0667 10.728C17.236 12.4427 12.0133 15.1334 8.25735 18.6454C3.79202 22.8214 3.08002 26.4574 3.37335 27.976C4.41602 33.3734 11.8547 36.888 14.8333 39.492C14.6867 39.5734 14.548 39.6494 14.4227 39.7187C12.9293 40.4574 7.25868 43.4254 5.84002 46.56C4.23068 50.116 6.09602 52.668 7.33068 53.012C11.156 54.076 15.0813 52.1614 17.192 49.0147C19.3013 45.8694 19.044 41.772 18.076 39.9027C18.064 39.88 18.0507 39.8574 18.0387 39.8334C18.424 39.6054 18.8173 39.3734 19.2067 39.144C19.9667 38.6974 20.7134 38.2814 21.36 37.9294C20.9973 38.9214 20.732 40.112 20.5947 41.8307C20.432 43.8494 21.26 46.4587 22.3427 47.4854C22.82 47.9374 23.3933 47.948 23.756 47.948C25.016 47.948 25.5907 46.9 26.224 45.66C27 44.14 27.6894 42.3694 27.6894 42.3694C27.6894 42.3694 26.8253 47.1507 29.18 47.1507C30.0387 47.1507 30.9014 46.0374 31.2867 45.4707C31.288 45.4774 31.288 45.48 31.288 45.48C31.288 45.48 31.3107 45.4427 31.3547 45.3694C31.444 45.2334 31.4947 45.1467 31.4947 45.1467C31.4947 45.1467 31.496 45.1374 31.4987 45.1214C31.844 44.5227 32.6093 43.1574 33.756 40.9054C35.2387 37.996 36.66 34.3507 36.66 34.3507C36.66 34.3507 36.792 35.2414 37.2253 36.716C37.48 37.5827 38.0213 38.5414 38.4493 39.4614C38.1054 39.9387 37.8947 40.212 37.8947 40.212C37.8947 40.212 37.896 40.2174 37.9 40.2267C37.6253 40.592 37.3173 40.9854 36.9947 41.3694C35.824 42.7627 34.4307 44.3547 34.244 44.8134C34.024 45.3547 34.076 45.752 34.5013 46.0734C34.812 46.3067 35.364 46.344 35.9413 46.3054C36.9933 46.2347 37.732 45.9734 38.0973 45.8147C38.6667 45.6134 39.3293 45.2974 39.9507 44.84C41.0987 43.996 41.7907 42.7894 41.724 41.1894C41.6867 40.308 41.4067 39.4347 41.0507 38.6107C41.1547 38.4614 41.2587 38.3094 41.364 38.1574C43.1733 35.512 44.5773 32.6054 44.5773 32.6054C44.5773 32.6054 44.7093 33.496 45.1427 34.9707C45.3613 35.716 45.7947 36.5307 46.184 37.328C44.4827 38.7107 43.428 40.3174 43.0613 41.3707C42.384 43.32 42.9147 44.2027 43.9093 44.404C44.36 44.4947 44.9973 44.288 45.476 44.0854C46.072 43.888 46.788 43.5587 47.4573 43.0667C48.6053 42.2227 49.7093 41.0414 49.6427 39.4427C49.612 38.7147 49.4147 37.992 49.1467 37.2987C50.5893 36.6974 52.456 36.364 54.8347 36.6414C59.9373 37.2374 60.9373 40.4227 60.7467 41.756C60.5547 43.0894 59.4853 43.8227 59.1267 44.044C58.7693 44.2654 58.66 44.3427 58.6893 44.5067C58.7333 44.7454 58.8987 44.7374 59.204 44.6854C59.624 44.6147 61.8827 43.6014 61.98 41.14C62.1013 38.012 59.108 34.58 53.8053 34.608ZM14.476 47.8667C12.7853 49.7107 10.4253 50.4067 9.41202 49.82C8.31868 49.1867 8.75202 46.472 10.8253 44.5147C12.0893 43.3227 13.7213 42.224 14.804 41.548C15.0507 41.4 15.412 41.1827 15.852 40.9187C15.9254 40.8774 15.9667 40.8547 15.9667 40.8547L15.9654 40.852C16.0507 40.8014 16.1373 40.7494 16.2267 40.6947C16.9827 43.48 16.2507 45.932 14.476 47.8667ZM26.7893 39.4974C26.2013 40.932 24.9693 44.604 24.2187 44.4067C23.5747 44.2374 23.1827 41.4467 24.0907 38.7C24.5467 37.3174 25.5227 35.6654 26.096 35.024C27.0187 33.992 28.0347 33.6547 28.2814 34.0734C28.5947 34.6067 27.1587 38.5974 26.7893 39.4974ZM36.9613 44.3507C36.712 44.4814 36.4827 44.5627 36.3773 44.5C36.2987 44.4534 36.48 44.2814 36.48 44.2814C36.48 44.2814 37.752 42.912 38.2533 42.2894C38.5453 41.9267 38.8827 41.496 39.2507 41.016C39.2533 41.064 39.2547 41.112 39.2547 41.1587C39.252 42.7987 37.668 43.9054 36.9613 44.3507ZM44.7973 42.564C44.6107 42.432 44.6427 42.004 45.2547 40.6694C45.4947 40.1454 46.044 39.264 46.996 38.4214C47.1067 38.768 47.1733 39.1 47.172 39.4094C47.16 41.4734 45.688 42.244 44.7973 42.564Z" fill="#F06292"/>
</svg>
